<svg xmlns="http://www.w3.org/2000/svg" width="64" height="64">
    <path style="stroke:none;fill-rule:nonzero;fill:#000;fill-opacity:1" d="M25.781 46.754v-21.34h-2.535A51.194 51.194 0 0 0 18 28.641v2.78c1.5-1.03 3.875-2.48 5.031-3.108h.047v18.44Zm4.75-5.223c.188 2.563 2.375 5.625 6.813 5.625 5.031 0 8-4.265 8-11.484C45.344 27.938 42.219 25 37.53 25c-3.703 0-7.187 2.688-7.187 7.234 0 4.641 3.297 7.082 6.703 7.082 2.984 0 4.922-1.504 5.531-3.16h.11c-.016 5.266-1.844 8.657-5.22 8.657-2.656 0-4.03-1.801-4.198-3.282Zm11.813-9.265c0 2.78-2.235 4.718-4.735 4.718-2.406 0-4.578-1.53-4.578-4.8 0-3.293 2.328-4.84 4.672-4.84 2.531 0 4.64 1.593 4.64 4.922Zm0 0"/>
    <path style="stroke:none;fill-rule:nonzero;fill:#000;fill-opacity:1" d="M14 0c1.105 0 2 .895 2 2v2h32V2a1.999 1.999 0 1 1 4 0v2h4a8 8 0 0 1 8 8v44a8 8 0 0 1-8 8H8a8 8 0 0 1-8-8V12a8 8 0 0 1 8-8h4V2c0-1.105.895-2 2-2ZM4 16v40c0 2.21 1.79 4 4 4h48c2.21 0 4-1.79 4-4V16Zm0 0"/>
</svg>
