<svg xmlns="http://www.w3.org/2000/svg" width="64" height="64">
    <path style="stroke:none;fill-rule:evenodd;fill:#000;fill-opacity:1" d="M25.652 2.734c-1.086.211-1.422.305-2 .54-1.882.765-3.578 2.425-4.32 4.234-.512 1.25-.578 1.64-.637 3.773l-.05 2.051h-5.52c-6.242 0-6.191-.004-6.996.797a2.634 2.634 0 0 0 0 3.742c.66.656 1.18.797 3.008.797h1.523l.031 18.05c.032 16.223.051 18.11.204 18.59.972 3.024 2.8 4.856 5.796 5.797.473.149 2.184.172 14.829.204 9.636.02 14.53-.004 15.023-.082a8.1 8.1 0 0 0 6.148-4.801c.625-1.485.582-.04.618-19.707l.03-18.051h1.524c1.828 0 2.348-.14 3.008-.797a2.634 2.634 0 0 0 0-3.742c-.805-.8-.754-.797-6.996-.797h-5.52l-.05-2.05c-.04-1.352-.11-2.235-.215-2.59-.942-3.188-3.38-5.41-6.477-5.91-.652-.106-12.449-.15-12.96-.048m12.585 5.442c.676.23 1.356.91 1.586 1.586.13.386.176.902.176 2.043v1.527H23.98l.04-1.73c.035-1.672.043-1.754.328-2.239.336-.57.851-1 1.437-1.21.317-.114 1.63-.145 6.168-.15 5.098-.003 5.828.017 6.285.173M48 36.196c0 19.683.063 18.144-.797 19.007-.855.852.219.797-15.203.797-15.422 0-14.348.055-15.203-.797-.86-.863-.797.676-.797-19.008V18.668h32v17.527"/>
</svg>
