<svg xmlns="http://www.w3.org/2000/svg" width="64" height="64">
    <path style="stroke:none;fill-rule:nonzero;fill:#000;fill-opacity:1" d="M16 2a1.999 1.999 0 1 0-4 0v2H8a8 8 0 0 0-8 8v4h64v-4a8 8 0 0 0-8-8h-4V2a1.999 1.999 0 1 0-4 0v2H16Zm21.61 38.984c2.5 0 4.734-1.937 4.734-4.718 0-3.328-2.11-4.922-4.64-4.922-2.345 0-4.673 1.547-4.673 4.84 0 3.27 2.172 4.8 4.578 4.8Zm0 0"/>
    <path style="stroke:none;fill-rule:nonzero;fill:#000;fill-opacity:1" d="M64 56V20H0v36a8 8 0 0 0 8 8h48a8 8 0 0 0 8-8Zm-26.656-4.84c-4.442 0-6.625-3.066-6.813-5.629h2.735c.172 1.48 1.547 3.282 4.203 3.282 3.375 0 5.203-3.391 5.218-8.657h-.109c-.61 1.657-2.547 3.16-5.531 3.16-3.406 0-6.703-2.441-6.703-7.082 0-4.547 3.484-7.234 7.187-7.234 4.688 0 7.813 2.938 7.813 10.672 0 7.219-2.969 11.484-8 11.484ZM25.785 29.422v21.324h-2.707v-18.43h-.047c-1.16.625-3.531 2.079-5.031 3.11V32.64a50.15 50.15 0 0 1 5.254-3.22Zm0 0"/>
</svg>
