<svg xmlns="http://www.w3.org/2000/svg" width="64" height="64">
    <path style="stroke:none;fill-rule:evenodd;fill:#000;fill-opacity:1" d="M43.844 49.46a7.983 7.983 0 0 0 2.09-4.413l12.437 5.527A4 4 0 0 0 64 46.926V17.074a3.997 3.997 0 0 0-5.625-3.648l-12.441 5.527A8.004 8.004 0 0 0 38 12H17.09l2.855 4H38c2.21 0 4 1.79 4 4v24c0 .73-.2 1.445-.574 2.07ZM5.71 16.72A4.007 4.007 0 0 0 4 20v24c0 2.21 1.79 4 4 4h20.055l2.855 4H8a8 8 0 0 1-8-8V20a7.98 7.98 0 0 1 3.387-6.535l2.32 3.254ZM60 46.922l-14-6.223V23.301l14-6.227v29.852ZM42.371 61.16l-40-56L5.63 2.84l40 56Zm0 0"/>
</svg>
