<svg xmlns="http://www.w3.org/2000/svg" width="64" height="64">
    <path style="stroke:none;fill-rule:nonzero;fill:#000;fill-opacity:1" d="M50.668 40H13.332a2.673 2.673 0 0 1-2.664-2.668c0-1.465 1.2-2.664 2.664-2.664h37.336c1.465 0 2.664 1.2 2.664 2.664 0 1.469-1.2 2.668-2.664 2.668Zm0 5.332H13.332A2.676 2.676 0 0 0 10.668 48c0 1.465 1.2 2.668 2.664 2.668h37.336A2.676 2.676 0 0 0 53.332 48c0-1.465-1.2-2.668-2.664-2.668ZM40 29.332l12.215-8.664a2.698 2.698 0 0 0 1.117-2.16c0-2.16-2.453-3.442-4.21-2.188L40 22.8l-13.332-9.468-14.723 8.961a2.711 2.711 0 0 0-1.277 2.293c0 2.082 2.266 3.36 4.05 2.266l11.735-7.145Zm0 0"/>
</svg>
