<svg xmlns="http://www.w3.org/2000/svg" width="64" height="64">
    <path style="stroke:none;fill-rule:nonzero;fill:#000;fill-opacity:1" d="M16 5.332c5.89 0 10.668 4.777 10.668 10.668v5.332h10.664V16c0-5.89 4.777-10.668 10.668-10.668 5.89 0 10.668 4.777 10.668 10.668 0 5.89-4.777 10.668-10.668 10.668h-5.332v10.664H48c5.89 0 10.668 4.777 10.668 10.668 0 5.89-4.777 10.668-10.668 10.668-5.89 0-10.668-4.777-10.668-10.668v-5.332H26.668V48c0 5.89-4.777 10.668-10.668 10.668-5.89 0-10.668-4.777-10.668-10.668 0-5.89 4.777-10.668 10.668-10.668h5.332V26.668H16c-5.89 0-10.668-4.777-10.668-10.668 0-5.89 4.777-10.668 10.668-10.668M42.668 48A5.331 5.331 0 0 0 48 53.332 5.331 5.331 0 0 0 53.332 48 5.331 5.331 0 0 0 48 42.668h-5.332V48m-5.336-21.332H26.668v10.664h10.664V26.668M16 42.668A5.331 5.331 0 0 0 10.668 48 5.331 5.331 0 0 0 16 53.332 5.331 5.331 0 0 0 21.332 48v-5.332H16M21.332 16A5.331 5.331 0 0 0 16 10.668 5.331 5.331 0 0 0 10.668 16 5.331 5.331 0 0 0 16 21.332h5.332V16M48 21.332A5.331 5.331 0 0 0 53.332 16 5.331 5.331 0 0 0 48 10.668 5.331 5.331 0 0 0 42.668 16v5.332Zm0 0"/>
</svg>
