<svg xmlns="http://www.w3.org/2000/svg" width="64" height="64">
    <path style="stroke:none;fill-rule:nonzero;fill:#000;fill-opacity:1" d="M45.332 52.215V2.668h5.336v49.547l4.344-4.348c2.394-2.39 4.394-4.347 4.457-4.347.058 0 .933.828 1.945 1.84l1.84 1.843-7.629 7.625L48 62.453l-7.625-7.625-7.629-7.625 1.84-1.844c1.012-1.011 1.887-1.84 1.945-1.84.063 0 2.063 1.958 4.457 4.348ZM8.375 9.172c4.164-4.164 7.594-7.57 7.625-7.57a774.047 774.047 0 0 1 7.625 7.57l7.574 7.574-1.89 1.895-1.895 1.894-4.375-4.375-4.371-4.375v49.547h-5.336V11.785L8.961 16.16l-4.375 4.375-1.895-1.894-1.89-1.895Zm0 0"/>
</svg>
